# xmcd CD database file
#
# Track frame offsets:
#	225
#	17300
#	31876
#	44928
#	57502
#	70877
#	86641
#	98451
#	114084
#	127209
#	137068
#	150948
#	163462
#	175228
#
# Disc length: 2541 seconds
#
# Revision: 1
# Processed by: cddbd v1.5.1PL0 Copyright (c) Steve Scherf et al.
# Submitted via: CDex 1.51
#
DISCID=b909ea0e
DTITLE=Anton Auf Der Balleralm - Baller Alm Cd3
DYEAR=1900
DGENRE=Dance
TTITLE0=Dj Charly - Anton Aus Tirol
TTITLE1=Orig. Tiroler Echo - Wenn Die Sonn' Von Himmel Lacht
TTITLE2=Servus Aus Tirol - Und Dann Rock'n Ma
TTITLE3=Die Mayrhofner - Wenn Die Bayern Feiern
TTITLE4=Orig. Südtiroler Spitzbaum - Wir Bleib'm Landsleut
TTITLE5=Bartl Gensbichler and Seine Schilehrermusi - Mir San Die Schilehrer
TTITLE6=Die 4 Holterbuam - Herz Butzi Maus
TTITLE7=Orig. Trio Alpin - Der Zottate Bock....
TTITLE8=Casanovas - Ich MöCht' Dich Noch Einmal
TTITLE9=Marc Pircher - Gentlemen And Ladies.....
TTITLE10=Zillertal Buam - I Steh' Auf Tirol
TTITLE11=Die Rassberger - Rassberg Boarischer
TTITLE12=Zangtaler Quinett - Nimm's Locker
TTITLE13=Orig. Südtiroler Spitzbaum - Sierra Madre Del Sur
EXTD=
EXTT0=
EXTT1=
EXTT2=
EXTT3=
EXTT4=
EXTT5=
EXTT6=
EXTT7=
EXTT8=
EXTT9=
EXTT10=
EXTT11=
EXTT12=
EXTT13=
PLAYORDER=
